<?xml version="1.0" encoding="UTF-8" standalone="no"?>
<svg
   height="512"
   width="512"
   version="1.1"
   id="svg1"
   sodipodi:docname="nextjs.svg"
   inkscape:version="1.4 (86a8ad7, 2024-10-11)"
   xmlns:inkscape="http://www.inkscape.org/namespaces/inkscape"
   xmlns:sodipodi="http://sodipodi.sourceforge.net/DTD/sodipodi-0.dtd"
   xmlns="http://www.w3.org/2000/svg"
   xmlns:svg="http://www.w3.org/2000/svg">
  <defs
     id="defs1" />
  <sodipodi:namedview
     id="namedview1"
     pagecolor="#ffffff"
     bordercolor="#000000"
     borderopacity="0.25"
     inkscape:showpageshadow="2"
     inkscape:pageopacity="0.0"
     inkscape:pagecheckerboard="0"
     inkscape:deskcolor="#d1d1d1"
     inkscape:zoom="1.0800781"
     inkscape:cx="344.88246"
     inkscape:cy="357.84448"
     inkscape:window-width="1366"
     inkscape:window-height="715"
     inkscape:window-x="-8"
     inkscape:window-y="-8"
     inkscape:window-maximized="1"
     inkscape:current-layer="svg1" />
  <path
     d="M 386.39856,35.507973 C 217.06003,-64.06076 1.8845311,57.5499 0.012267,253.88179 -1.8160015,445.5983 201.07486,569.42726 370.03293,485.04501 c 0,0 25.71686,-13.54439 25.39676,-14.47261 C 553.38068,368.83514 551.2467,132.43642 386.39856,35.507973 Z"
     id="path2"
     sodipodi:nodetypes="ssccs"
     style="fill:#ffffff" />
  <path
     d="m386.3985596 35.5079727c-169.3385315-99.5687332-384.5140285 22.0419274-386.3862926 218.3738175-1.8282685 191.716507 201.0625916 315.5454712 370.0206604 231.1632233l-184.4725331-271.408722.0000305 167.9969177c0 18.6138916-35.6191101 18.6138916-35.6191101 0v-225.2124176c0-14.7758484 27.4472504-15.9884033 35.2252045-3.1443481l210.2631683 317.2959595c157.9509888-101.737259 155.8170166-338.1359864-9.0311279-435.0644303zm-23.7556153 317.9385605-35.7316284-54.5765381v-149.4116669c0-13.9324646 35.7316284-13.9324646 35.7316284 0z"
     id="path1" />
</svg>
